<svg xmlns="http://www.w3.org/2000/svg" viewBox="0 0 688.78 208.09"><defs><style>.cls-1{fill:#010101;}.cls-2{fill:#fff;}.cls-3{fill:#f7a619;}.cls-4{fill:#5ec0c8;}</style></defs><g id="Livello_2" data-name="Livello 2"><g id="Livello_1-2" data-name="Livello 1"><path class="cls-1" d="M13,156v7.15c0,12.29,5.86,16.72,15.44,16.72,12.86,0,16.43-7.72,16.43-17.72V86.36H58.73v74.88c0,24-15.72,30.44-29.58,30.44C5.29,191.68,0,175.68,0,166.1V156Z"/><path class="cls-1" d="M99.88,189v-6.8L99.7,182c-3.31,5.45-7.33,8.31-14.84,8.31-6.88,0-15.19-3.31-15.19-14.48V142.22h7.86v31c0,7.68,3.94,10.27,9,10.27,9.92,0,12.87-8.75,12.87-15.55V142.22h7.87V189Z"/><path class="cls-1" d="M142.24,155.54c-.09-2.95-1.16-7.86-11.08-7.86-2.41,0-9.3.8-9.3,6.61,0,3.84,2.42,4.74,8.49,6.26l7.87,2c9.74,2.42,13.14,6,13.14,12.34,0,9.65-8,15.46-18.5,15.46-18.5,0-19.84-10.73-20.11-16.36h7.59c.27,3.67,1.35,9.56,12.43,9.56,5.63,0,10.72-2.23,10.72-7.41,0-3.76-2.59-5-9.29-6.71l-9.12-2.23c-6.52-1.61-10.81-4.92-10.81-11.35,0-10.28,8.49-14.93,17.69-14.93,16.72,0,17.88,12.34,17.88,14.66Z"/><path class="cls-1" d="M166.64,148.75v30.39c0,3.66,3.13,3.66,4.74,3.66h2.77V189c-2.86.26-5.1.62-5.9.62-7.78,0-9.47-4.38-9.47-10V148.75h-6.35v-6.53h6.35v-13h7.86v13h7.51v6.53Z"/><path class="cls-1" d="M183.2,86.36h45.16c19.15,0,29,11.86,29,25.87,0,6.71-2.43,16.14-13.72,21.43,6.72,2.72,18.58,7.43,18.58,25,0,16.43-12.15,30.3-34.87,30.3H183.2Zm13.87,43.44h25c13.29,0,21.44-4,21.44-16.57,0-9.58-5.86-15-21.29-15H197.07Zm0,47.3h29.58c14.43,0,21.72-7.28,21.72-18.72,0-14.43-12.72-17.29-24-17.29H197.07Z"/><path class="cls-1" d="M298.8,189v-6.8l-.18-.17c-3.31,5.45-7.33,8.31-14.84,8.31-6.88,0-15.19-3.31-15.19-14.48V142.22h7.87v31c0,7.68,3.93,10.27,9,10.27,9.92,0,12.87-8.75,12.87-15.55V142.22h7.87V189Z"/><path class="cls-1" d="M343.84,142.22h8.67c-5.45,15.29-10.81,30.57-16.8,45.85-7.42,19-8.22,20-18.32,20a11.86,11.86,0,0,1-3.31-.71v-7.15a14,14,0,0,0,4.74.8c4.11,0,4.56-1.16,8.31-10.81l-17.34-48h8.94l12.42,38.08h.18Z"/><path class="cls-1" d="M354.84,124.8h9.29v8.76c0,6.88-2.05,12.33-9.29,14v-4.2c4.65-.72,4.73-6.08,4.73-9.12h-4.73Z"/><path class="cls-1" d="M412,174.31a20.23,20.23,0,0,1-8.32,12.78c-2.14,1.43-5.18,3.22-12.69,3.22-13.13,0-20.91-9.92-20.91-23.42,0-14.48,7-26,22.43-26,13.5,0,20.11,10.73,20.11,27.26H378.52c0,9.74,4.56,15.37,13.59,15.37,7.41,0,11.79-5.72,12.06-9.2Zm-7.51-12.42c-.45-7.24-3.49-13.95-13-13.95-7.24,0-13,6.71-13,13.95Z"/><path class="cls-1" d="M418.65,142.22h7.42v6.62h.18c1.69-2.5,5.72-8,14.12-8s11.08,5.1,12.42,7.6c3.93-4.38,7.06-7.6,14.3-7.6,5,0,14.48,2.6,14.48,15.73V189H473.7V158.76c0-6.44-2-10.82-8.67-10.82s-11,6.26-11,12.52V189h-7.86V156.61c0-3.93-1.52-8.67-7.33-8.67-4.47,0-12.34,2.86-12.34,15.56V189h-7.86Z"/><path class="cls-1" d="M502,163.53q6,0,8.58,2.93t2.57,8.22a24.49,24.49,0,0,1-.57,5,15.4,15.4,0,0,1-2.08,5.07,12.44,12.44,0,0,1-4.28,4A14.06,14.06,0,0,1,499,190.4c-4.29,0-7.19-1.13-8.72-3.36a14.56,14.56,0,0,1-2.28-8.36,21.67,21.67,0,0,1,.71-5.58,14.27,14.27,0,0,1,2.29-4.85,10.9,10.9,0,0,1,4.28-3.43A15.61,15.61,0,0,1,502,163.53Zm3.15-10a16.91,16.91,0,0,1-5.86-.86,7.47,7.47,0,0,1-3.58-2.65,11,11,0,0,1-1.78-4.43,32.29,32.29,0,0,1-.5-6.07c0-.86,0-1.78.07-2.79s.14-2.26.28-3.78.29-3.43.43-5.72.36-5.21.65-8.79.61-7.88,1-12.93.8-11.1,1.28-18.15c.1-2.09.34-3.33.72-3.71s1-.43,2.28-.43h8.43q7.86,0,11.22,3.07a9.49,9.49,0,0,1,3.36,7.22,61,61,0,0,1-.5,6.78c-.33,2.82-.79,5.93-1.36,9.36s-1.21,7-1.93,10.79-1.42,7.48-2.14,11.15-1.41,7.17-2.07,10.5-1.24,6.2-1.72,8.58a3.93,3.93,0,0,1-.93,2.28,3.26,3.26,0,0,1-2.21.58Z"/><path class="cls-2" d="M568.39,34.39H647.1a41.67,41.67,0,0,1,41.67,41.67v78.71a41.67,41.67,0,0,1-41.67,41.67H570.76a44,44,0,0,1-44-44V76.06A41.67,41.67,0,0,1,568.39,34.39Z"/><path class="cls-3" d="M657.65,135.44c-2.5,2.54-4.93,4.85-7.31,7l-.19.18c-.34.3-.7.63-1.07.92a81.53,81.53,0,0,1-14.14,10.11q-17.88,9.76-35.52,4.06-16.35-5.28-26.38-21.86L531.37,158.5v6.4a26.89,26.89,0,0,0,26.88,26.89h99a26.88,26.88,0,0,0,26.89-26.89V110.16l-26.47,25.27Z"/><path class="cls-4" d="M618.07,97.2l-22.2,11.92-13.36,7.17c-6.9-15.67-4.68-26.49,6.54-32.61S609.89,82.23,618.07,97.2Z"/><path class="cls-4" d="M657.23,39h-99a27.45,27.45,0,0,0-19,7.87,26.81,26.81,0,0,0-7.88,19v77.8l36.1-19.37A47.46,47.46,0,0,1,565,97.75,36.06,36.06,0,0,1,584,72.22q14.61-8,28.27-1.91T636.31,95.5l2.36,4.49-36.9,20.15-13.6,7.42-.29.16Q606.69,154.6,631.61,141a52.86,52.86,0,0,0,8.93-6.32,0,0,0,0,1,0,0c.28-.33.6-.68,1-1,6.6-7,27.79-26.87,42.61-45.15V65.93A26.88,26.88,0,0,0,657.23,39Z"/><path class="cls-3" d="M638.17,30.42h-8.53a21.9,21.9,0,1,0-43.79,0h-8.52a30.42,30.42,0,1,1,60.84,0Z"/></g></g></svg>