<svg xmlns="http://www.w3.org/2000/svg" viewBox="0 0 695.83 208.09"><defs><style>.cls-1{fill:#010101;}.cls-2{fill:#fff;}.cls-3{fill:#f7a619;}.cls-4{fill:#5ec0c8;}</style></defs><g id="Livello_2" data-name="Livello 2"><g id="Livello_1-2" data-name="Livello 1"><path class="cls-1" d="M185.65,156v7.15c0,12.29,5.86,16.72,15.43,16.72,12.86,0,16.43-7.72,16.43-17.72V86.36h13.87v74.88c0,24-15.72,30.44-29.58,30.44-23.87,0-29.16-16-29.16-25.58V156Z"/><path class="cls-1" d="M272.52,189v-6.8l-.18-.17c-3.31,5.45-7.33,8.31-14.83,8.31-6.89,0-15.2-3.31-15.2-14.48V142.22h7.87v31c0,7.68,3.93,10.27,9,10.27,9.92,0,12.87-8.75,12.87-15.55V142.22h7.87V189Z"/><path class="cls-1" d="M314.88,155.54c-.09-2.95-1.16-7.86-11.08-7.86-2.41,0-9.29.8-9.29,6.61,0,3.84,2.41,4.74,8.49,6.26l7.86,2c9.74,2.42,13.14,6,13.14,12.34,0,9.65-8,15.46-18.5,15.46-18.5,0-19.84-10.73-20.11-16.36H293c.27,3.67,1.34,9.56,12.42,9.56,5.63,0,10.72-2.23,10.72-7.41,0-3.76-2.59-5-9.29-6.71l-9.12-2.23c-6.52-1.61-10.81-4.92-10.81-11.35,0-10.28,8.49-14.93,17.7-14.93,16.71,0,17.87,12.34,17.87,14.66Z"/><path class="cls-1" d="M339.28,148.75v30.39c0,3.66,3.13,3.66,4.74,3.66h2.77V189c-2.86.26-5.09.62-5.9.62-7.77,0-9.47-4.38-9.47-10V148.75h-6.35v-6.53h6.35v-13h7.86v13h7.51v6.53Z"/><path class="cls-1" d="M355.85,86.36H401c19.15,0,29,11.86,29,25.87,0,6.71-2.43,16.14-13.71,21.43,6.71,2.72,18.57,7.43,18.57,25,0,16.43-12.14,30.3-34.87,30.3H355.85Zm13.86,43.44h25c13.29,0,21.43-4,21.43-16.57,0-9.58-5.86-15-21.29-15H369.71Zm0,47.3h29.58c14.43,0,21.72-7.28,21.72-18.72,0-14.43-12.72-17.29-24-17.29H369.71Z"/><path class="cls-1" d="M471.44,189v-6.8l-.18-.17c-3.3,5.45-7.33,8.31-14.83,8.31-6.88,0-15.2-3.31-15.2-14.48V142.22h7.87v31c0,7.68,3.93,10.27,9,10.27,9.92,0,12.87-8.75,12.87-15.55V142.22h7.86V189Z"/><path class="cls-1" d="M516.49,142.22h8.67c-5.46,15.29-10.82,30.57-16.81,45.85-7.41,19-8.22,20-18.32,20a11.8,11.8,0,0,1-3.3-.71v-7.15a13.94,13.94,0,0,0,4.73.8c4.11,0,4.56-1.16,8.31-10.81l-17.33-48h8.93L503.8,180.3H504Z"/><path class="cls-1" d="M527.48,124.8h9.29v8.76c0,6.88-2,12.33-9.29,14v-4.2c4.65-.72,4.74-6.08,4.74-9.12h-4.74Z"/><path class="cls-1" d="M584.68,174.31a20.25,20.25,0,0,1-8.31,12.78c-2.15,1.43-5.19,3.22-12.69,3.22-13.14,0-20.92-9.92-20.92-23.42,0-14.48,7-26,22.43-26,13.5,0,20.11,10.73,20.11,27.26H551.16c0,9.74,4.56,15.37,13.59,15.37,7.42,0,11.79-5.72,12.06-9.2Zm-7.51-12.42c-.45-7.24-3.48-13.95-13-13.95-7.24,0-13,6.71-13,13.95Z"/><path class="cls-1" d="M591.29,142.22h7.42v6.62h.18c1.7-2.5,5.72-8,14.12-8s11.08,5.1,12.42,7.6c3.93-4.38,7.06-7.6,14.3-7.6,5,0,14.48,2.6,14.48,15.73V189h-7.86V158.76c0-6.44-2-10.82-8.67-10.82s-11,6.26-11,12.52V189h-7.86V156.61c0-3.93-1.52-8.67-7.33-8.67-4.47,0-12.33,2.86-12.33,15.56V189h-7.87Z"/><path class="cls-1" d="M674.68,163.53q6,0,8.58,2.93t2.57,8.22a24.49,24.49,0,0,1-.57,5,15.16,15.16,0,0,1-2.07,5.07,12.39,12.39,0,0,1-4.29,4,14.06,14.06,0,0,1-7.22,1.65c-4.28,0-7.19-1.13-8.71-3.36a14.49,14.49,0,0,1-2.29-8.36,22.11,22.11,0,0,1,.71-5.58,14.27,14.27,0,0,1,2.29-4.85,11,11,0,0,1,4.29-3.43A15.59,15.59,0,0,1,674.68,163.53Zm3.15-10a17,17,0,0,1-5.86-.86A7.4,7.4,0,0,1,668.4,150a10.84,10.84,0,0,1-1.79-4.43,32.29,32.29,0,0,1-.5-6.07c0-.86,0-1.78.07-2.79s.14-2.26.29-3.78.28-3.43.43-5.72.35-5.21.64-8.79.62-7.88,1-12.93.81-11.1,1.28-18.15c.1-2.09.34-3.33.72-3.71a3.72,3.72,0,0,1,2.29-.43h8.43q7.86,0,11.22,3.07a9.51,9.51,0,0,1,3.35,7.22,58.66,58.66,0,0,1-.5,6.78c-.33,2.82-.78,5.93-1.35,9.36s-1.22,7-1.93,10.79-1.43,7.48-2.15,11.15-1.4,7.17-2.07,10.5-1.24,6.2-1.71,8.58a4,4,0,0,1-.93,2.28,3.3,3.3,0,0,1-2.22.58Z"/><path class="cls-2" d="M41.67,34.39h78.71a41.67,41.67,0,0,1,41.67,41.67v78.71a41.67,41.67,0,0,1-41.67,41.67H44a44,44,0,0,1-44-44V76.06A41.67,41.67,0,0,1,41.67,34.39Z"/><path class="cls-3" d="M130.93,135.44c-2.5,2.54-4.93,4.85-7.31,7l-.19.18c-.34.3-.7.63-1.07.92a81.53,81.53,0,0,1-14.14,10.11q-17.88,9.76-35.52,4.06-16.35-5.28-26.38-21.86L4.65,158.5v6.4a26.89,26.89,0,0,0,26.88,26.89h99A26.88,26.88,0,0,0,157.4,164.9V110.16l-26.47,25.27Z"/><path class="cls-4" d="M91.35,97.2l-22.2,11.92-13.36,7.17c-6.9-15.67-4.68-26.49,6.54-32.61S83.17,82.23,91.35,97.2Z"/><path class="cls-4" d="M130.51,39h-99a27.45,27.45,0,0,0-19,7.87,26.81,26.81,0,0,0-7.88,19v77.8l36.1-19.37A47.46,47.46,0,0,1,38.3,97.75,36.06,36.06,0,0,1,57.23,72.22q14.61-8,28.27-1.91T109.59,95.5L112,100l-36.9,20.15-13.6,7.42-.29.16Q80,154.6,104.89,141a52.86,52.86,0,0,0,8.93-6.32,0,0,0,0,1,0,0c.28-.33.6-.68,1-1,6.6-7,27.79-26.87,42.61-45.15V65.93A26.88,26.88,0,0,0,130.51,39Z"/><path class="cls-3" d="M111.45,30.42h-8.53a21.9,21.9,0,1,0-43.79,0H50.61a30.42,30.42,0,1,1,60.84,0Z"/></g></g></svg>