<svg xmlns="http://www.w3.org/2000/svg" viewBox="0 0 473.18 354.69"><defs><style>.cls-1{fill:#fff;}.cls-2{fill:#f7a617;}.cls-3{fill:#5dc0c8;}.cls-4{fill:#1d1d1b;}</style></defs><g id="Livello_2" data-name="Livello 2"><g id="Livello_1-2" data-name="Livello 1"><path class="cls-1" d="M293,47.07H431.5a41.67,41.67,0,0,1,41.67,41.67v138.5a41.67,41.67,0,0,1-41.67,41.67H295.37a44,44,0,0,1-44-44V88.74A41.67,41.67,0,0,1,293,47.07Z"/><path class="cls-2" d="M430.56,185.41c-3.42,3.48-6.74,6.64-10,9.53l-.26.24c-.47.42-1,.86-1.46,1.26a111.53,111.53,0,0,1-19.36,13.84q-24.48,13.36-48.63,5.56-22.38-7.23-36.11-29.93L257.7,217v8.76a36.81,36.81,0,0,0,36.79,36.81H430a36.81,36.81,0,0,0,36.81-36.81V150.8l-36.25,34.6Z"/><path class="cls-3" d="M376.38,133.06,346,149.37l-18.29,9.82c-9.43-21.45-6.4-36.26,9-44.64S365.19,112.56,376.38,133.06Z"/><path class="cls-3" d="M430,53.44H294.49a37.59,37.59,0,0,0-26,10.78,36.69,36.69,0,0,0-10.78,26v106.5l49.41-26.51q-7-18.69-3.35-36.43,4.82-23.43,25.92-34.95,20-10.9,38.69-2.61t33,34.49l3.22,6.14-50.51,27.58-18.61,10.17-.41.21q25.76,36.79,59.87,18.18a73.35,73.35,0,0,0,12.22-8.65,0,0,0,0,1,0,0c.38-.45.82-.93,1.31-1.42,9-9.62,38-36.78,58.34-61.81V90.25A36.81,36.81,0,0,0,430,53.44Z"/><path class="cls-2" d="M403.9,41.64H392.23a30,30,0,0,0-60,0H320.61a41.65,41.65,0,0,1,83.29,0Z"/><path class="cls-4" d="M22.75,292.19v12.5c0,21.5,10.25,29.25,27,29.25,22.5,0,28.75-13.5,28.75-31V170.43h24.25v131c0,42-27.5,53.25-51.75,53.25-41.75,0-51-28-51-44.75V292.19Z"/><path class="cls-4" d="M116.75,170.43h79c33.5,0,50.75,20.75,50.75,45.25,0,11.75-4.25,28.25-24,37.51,11.75,4.75,32.5,13,32.5,43.75,0,28.75-21.25,53-61,53H116.75Zm24.25,76h43.75c23.25,0,37.5-7,37.5-29,0-16.75-10.25-26.25-37.25-26.25H141Zm0,82.75h51.75c25.25,0,38-12.75,38-32.75,0-25.25-22.25-30.25-42-30.25H141Z"/><path class="cls-4" d="M283,277.08h10.55V287c0,7.82-2.33,14-10.55,15.93v-4.76c5.27-.82,5.38-6.91,5.38-10.36H283Z"/><path class="cls-4" d="M353.91,332.61a23.89,23.89,0,0,1-9.83,15.11c-2.53,1.69-6.12,3.8-15,3.8-15.53,0-24.72-11.73-24.72-27.68,0-17.12,8.24-30.75,26.52-30.75,15.95,0,23.77,12.68,23.77,32.23H314.29c0,11.51,5.39,18.17,16.06,18.17,8.77,0,13.95-6.76,14.26-10.88ZM345,317.92c-.53-8.56-4.12-16.48-15.43-16.48-8.56,0-15.32,7.92-15.32,16.48Z"/><path class="cls-4" d="M359.3,294.68h8.77v7.82h.21c2-3,6.76-9.41,16.69-9.41s13.1,6,14.69,9c4.64-5.17,8.34-9,16.9-9,5.92,0,17.12,3.07,17.12,18.6v38.25h-9.3V314.23c0-7.61-2.33-12.79-10.25-12.79s-13,7.4-13,14.79v33.71h-9.29V311.69c0-4.65-1.8-10.25-8.67-10.25-5.28,0-14.58,3.38-14.58,18.38v30.12H359.3Z"/></g></g></svg>