<svg xmlns="http://www.w3.org/2000/svg" viewBox="0 0 696.74 207.77"><defs><style>.cls-1{fill:#fff;}.cls-2{fill:#f7a619;}.cls-3{fill:#5ec0c8;}</style></defs><g id="Livello_2" data-name="Livello 2"><g id="Livello_1-2" data-name="Livello 1"><path class="cls-1" d="M186.56,155.63v7.15c0,12.29,5.85,16.72,15.43,16.72,12.86,0,16.43-7.72,16.43-17.72V86h13.87v74.88c0,24-15.72,30.44-29.59,30.44-23.86,0-29.15-16-29.15-25.58V155.63Z"/><path class="cls-1" d="M273.43,188.65v-6.8l-.18-.18c-3.31,5.46-7.33,8.32-14.84,8.32-6.88,0-15.19-3.31-15.19-14.48V141.9h7.87v31c0,7.68,3.93,10.27,9,10.27,9.92,0,12.87-8.76,12.87-15.55V141.9h7.87v46.75Z"/><path class="cls-1" d="M315.79,155.22c-.09-2.95-1.16-7.86-11.08-7.86-2.41,0-9.3.8-9.3,6.61,0,3.84,2.42,4.74,8.5,6.25l7.86,2c9.74,2.41,13.14,6,13.14,12.33,0,9.66-8,15.47-18.5,15.47-18.5,0-19.84-10.73-20.11-16.36h7.6c.26,3.66,1.34,9.56,12.42,9.56,5.63,0,10.72-2.23,10.72-7.41,0-3.76-2.59-5-9.29-6.71l-9.12-2.23c-6.52-1.61-10.81-4.92-10.81-11.35,0-10.28,8.49-14.93,17.69-14.93,16.72,0,17.88,12.34,17.88,14.66Z"/><path class="cls-1" d="M340.19,148.43v30.38c0,3.67,3.13,3.67,4.74,3.67h2.77v6.17c-2.86.26-5.1.62-5.9.62-7.78,0-9.47-4.38-9.47-10V148.43H326V141.9h6.35v-13h7.86v13h7.51v6.53Z"/><path class="cls-1" d="M356.75,86h45.16c19.15,0,29,11.86,29,25.86,0,6.72-2.43,16.15-13.72,21.44,6.72,2.72,18.58,7.43,18.58,25,0,16.43-12.15,30.3-34.87,30.3H356.75Zm13.87,43.44h25c13.29,0,21.43-4,21.43-16.57,0-9.58-5.86-15-21.29-15H370.62Zm0,47.3H400.2c14.43,0,21.72-7.28,21.72-18.72,0-14.43-12.72-17.29-24-17.29H370.62Z"/><path class="cls-1" d="M472.35,188.65v-6.8l-.18-.18c-3.31,5.46-7.33,8.32-14.83,8.32-6.89,0-15.2-3.31-15.2-14.48V141.9H450v31c0,7.68,3.93,10.27,9,10.27,9.92,0,12.87-8.76,12.87-15.55V141.9h7.87v46.75Z"/><path class="cls-1" d="M517.39,141.9h8.67c-5.45,15.29-10.81,30.57-16.8,45.85-7.42,18.95-8.22,20-18.32,20a11.93,11.93,0,0,1-3.31-.71v-7.15a14.06,14.06,0,0,0,4.74.8c4.11,0,4.56-1.16,8.31-10.81l-17.34-48h8.94L504.7,180h.18Z"/><path class="cls-1" d="M528.39,124.48h9.29v8.75c0,6.89-2,12.34-9.29,14v-4.2c4.65-.72,4.74-6.08,4.74-9.12h-4.74Z"/><path class="cls-1" d="M585.59,174a20.23,20.23,0,0,1-8.32,12.78c-2.14,1.43-5.18,3.22-12.69,3.22-13.13,0-20.91-9.93-20.91-23.42,0-14.48,7-26,22.43-26,13.5,0,20.11,10.73,20.11,27.26H552.07c0,9.74,4.56,15.37,13.59,15.37,7.41,0,11.79-5.72,12.06-9.2Zm-7.51-12.42c-.45-7.24-3.49-13.95-13.05-13.95-7.24,0-13,6.71-13,13.95Z"/><path class="cls-1" d="M592.2,141.9h7.42v6.62h.18c1.7-2.51,5.72-8,14.12-8s11.08,5.1,12.42,7.6c3.93-4.38,7.06-7.6,14.3-7.6,5,0,14.48,2.59,14.48,15.73v32.36h-7.87V158.44c0-6.44-2-10.82-8.67-10.82s-11,6.26-11,12.52v28.51h-7.86V156.29c0-3.93-1.52-8.67-7.33-8.67-4.47,0-12.33,2.86-12.33,15.55v25.48H592.2Z"/><path class="cls-1" d="M675.59,163.21q6,0,8.58,2.93t2.57,8.21a24.51,24.51,0,0,1-.57,5,15,15,0,0,1-2.08,5.07,12.36,12.36,0,0,1-4.28,4,14.16,14.16,0,0,1-7.22,1.64q-6.44,0-8.72-3.35a14.56,14.56,0,0,1-2.28-8.36,21.67,21.67,0,0,1,.71-5.58,14.32,14.32,0,0,1,2.29-4.86,11,11,0,0,1,4.29-3.43A15.68,15.68,0,0,1,675.59,163.21Zm3.15-10a16.93,16.93,0,0,1-5.86-.85,7.47,7.47,0,0,1-3.58-2.65,11,11,0,0,1-1.78-4.43,32.29,32.29,0,0,1-.5-6.07c0-.86,0-1.79.07-2.79s.14-2.26.28-3.78.29-3.43.43-5.72.36-5.22.65-8.79.62-7.88,1-12.93.81-11.1,1.28-18.15q.15-3.14.72-3.72a3.75,3.75,0,0,1,2.28-.42h8.44q7.85,0,11.21,3.07a9.49,9.49,0,0,1,3.36,7.22,61.17,61.17,0,0,1-.5,6.78q-.5,4.22-1.36,9.36T693,120.12q-1.08,5.66-2.15,11.15c-.71,3.67-1.41,7.17-2.07,10.5s-1.24,6.2-1.72,8.58a4,4,0,0,1-.92,2.28,3.31,3.31,0,0,1-2.22.57Z"/><path class="cls-1" d="M33.06,34.27h95.41a33.06,33.06,0,0,1,33.06,33.06v95.41a33.06,33.06,0,0,1-33.06,33.06h-93A35.42,35.42,0,0,1,0,160.37v-93A33.06,33.06,0,0,1,33.06,34.27Z"/><path class="cls-2" d="M130.5,135c-2.49,2.53-4.91,4.83-7.28,6.94l-.19.17c-.35.31-.71.63-1.07.92a80.84,80.84,0,0,1-14.1,10.08q-17.81,9.72-35.4,4-16.29-5.28-26.29-21.8L4.64,158v6.38a26.79,26.79,0,0,0,26.79,26.8h98.66a26.8,26.8,0,0,0,26.8-26.8V109.8L130.5,135Z"/><path class="cls-3" d="M91.05,96.88,68.92,108.76l-13.31,7.15c-6.87-15.62-4.66-26.4,6.52-32.5S82.9,82,91.05,96.88Z"/><path class="cls-3" d="M130.09,38.91H31.43a27.37,27.37,0,0,0-18.95,7.85A26.75,26.75,0,0,0,4.64,65.71v77.55l36-19.31a47.31,47.31,0,0,1-2.43-26.52A36,36,0,0,1,57,72Q71.61,64,85.22,70.08t24,25.11l2.34,4.48L74.8,119.74l-13.55,7.41-.29.16q18.75,26.77,43.59,13.23a52.64,52.64,0,0,0,8.89-6.3s0,0,0,0c.28-.33.6-.68,1-1,6.57-7,27.69-26.77,42.47-45V65.71A26.8,26.8,0,0,0,130.09,38.91Z"/><path class="cls-2" d="M111.09,30.32h-8.5a21.83,21.83,0,0,0-43.66,0H50.44a30.33,30.33,0,0,1,60.65,0Z"/></g></g></svg>